<?xml version="1.0" encoding="utf-8"?>
<!-- Generator: Adobe Illustrator 27.1.0, SVG Export Plug-In . SVG Version: 6.00 Build 0)  -->
<svg version="1.1" id="Capa_1" xmlns="http://www.w3.org/2000/svg" xmlns:xlink="http://www.w3.org/1999/xlink" x="0px" y="0px"
	 viewBox="0 0 1520.2 290.8" style="enable-background:new 0 0 1520.2 290.8;" xml:space="preserve">
<style type="text/css">
	.st0{fill:#EEF4F8;}
	.st1{fill:#9DD5F2;}
</style>
<g>
	<g>
		<path class="st0" d="M190.6,53.7v44.8l-17.3-17.3c-1.4-1.4-2.9-2.7-4.3-3.9V55.5c0-21.4-12.7-34.2-34-34.2H97.5
			c-21.8,0-34.3,12.6-34.3,34.5v20.8c-1.6,1.5-3.2,3.1-4.8,4.8L41.9,98l-0.1-43.9c-0.2-18.3,4.2-32.1,12.9-40.8
			C63.4,4.5,77.2,0,95.8,0h41C173.6,0,190.6,17.1,190.6,53.7z"/>
		<path class="st0" d="M213,136.3l-59.3-59.4c-13-12.7-25.7-19.2-37.9-19.2c-12,0-24.5,6.3-37,18.6L78,77.1l-0.4,0.3l-38.3,38.7
			l-19.9,20c-25.9,26.3-25.9,49.8-0.1,76.1l58.4,58.9c12.8,13,25.6,19.6,37.9,19.6c12.5,0,25.4-6.6,38.5-19.7l58.8-58.8
			c12.9-12.9,19.4-25.7,19.4-38.2C232.2,161.7,225.7,149.1,213,136.3z M196.7,198.3l-56.5,56.4c-7.7,7.7-15.8,11.6-24.3,11.6
			c-8.4,0-16.6-3.9-24.3-11.6l-55.9-56.4c-7.7-7.7-11.6-15.8-11.6-24c0-8.3,3.9-16.4,11.6-24.1l55.9-56.5
			c7.7-7.7,15.9-11.6,24.3-11.6c8.5,0,16.6,3.9,24.4,11.6l56.3,56.4c7.5,7.5,11.3,15.6,11.3,24C208,182.7,204.1,190.8,196.7,198.3z"
			/>
		<path class="st1" d="M137.7,179.3l30.8-17.3l0-0.1L156,142l-14.9,10.6l-11.8,8.3c1-2.9,1.3-6,0.6-9.1l-6.9-34.7l-0.1-0.1
			l-22.7,5.9l5.5,17.5l5.3,17c-2.7-2.7-6.2-4.6-10.3-5l-35.2-4.2L64,171.7l18.2,0.2l17.4,0.2c-3.3,1.7-6.1,4.5-7.7,8.2l-14.7,32.2
			l21.8,8.7l5.8-17.3l5.7-16.7c0.6,3.8,2.4,7.3,5.4,10.1l26.1,24l15-18.2l-14.7-10.9L128,181.6C131.2,181.8,134.6,181.1,137.7,179.3
			z"/>
	</g>
	<g>
		<path class="st0" d="M319.5,174.7c0-14.3,2.1-26.8,6.2-37.5c4.2-10.7,9.7-19.6,16.5-26.6c6.8-7.1,14.7-12.3,23.7-15.9
			c8.9-3.5,18.1-5.3,27.4-5.3c21.8,0,38.5,6.8,50.1,20.4c11.6,13.6,17.4,34.3,17.4,62.1c0,1.2,0,2.9,0,4.8c0,2-0.1,3.8-0.3,5.5
			H349.7c1.2,16.8,6.1,29.6,14.6,38.3c8.5,8.7,21.8,13.1,39.8,13.1c10.2,0,18.7-0.9,25.7-2.6c7-1.8,12.2-3.5,15.7-5.1l4,24.3
			c-3.5,1.9-9.7,3.8-18.5,5.9c-8.8,2.1-18.8,3.1-30,3.1c-14.1,0-26.3-2.1-36.6-6.4c-10.3-4.3-18.7-10.1-25.4-17.6
			c-6.6-7.5-11.6-16.3-14.8-26.6C321.1,198.2,319.5,186.9,319.5,174.7z M430.6,158.8c0.2-13.1-3.1-23.8-9.8-32.2
			c-6.7-8.4-16-12.6-27.9-12.6c-6.6,0-12.5,1.3-17.6,3.9c-5.1,2.6-9.4,6-12.9,10.1c-3.5,4.2-6.3,8.9-8.2,14.3
			c-2,5.4-3.3,10.9-3.9,16.5H430.6z"/>
		<path class="st0" d="M631.3,250.6c-6.6,1.7-15.4,3.4-26.3,5.3c-10.9,1.9-23.5,2.8-37.8,2.8c-12.4,0-22.9-1.8-31.4-5.5
			c-8.5-3.6-15.4-8.8-20.5-15.4c-5.2-6.6-8.9-14.5-11.2-23.5c-2.3-9-3.4-19-3.4-30V93.4h29v84.7c0,19.7,3.1,33.8,9.3,42.3
			c6.2,8.5,16.7,12.8,31.4,12.8c3.1,0,6.3-0.1,9.7-0.3c3.3-0.2,6.4-0.5,9.3-0.8c2.9-0.3,5.5-0.6,7.9-0.9c2.4-0.3,4.1-0.7,5.1-1.1
			V93.4h28.9V250.6z"/>
		<path class="st0" d="M681.1,98.1c6.6-1.7,15.5-3.4,26.5-5.3c11-1.9,23.7-2.8,38-2.8c12.9,0,23.5,1.8,32.1,5.4
			c8.5,3.6,15.3,8.7,20.4,15.3c5.1,6.5,8.7,14.4,10.7,23.5c2.1,9.1,3.1,19.2,3.1,30.2v90.9h-28.9v-84.7c0-10-0.7-18.5-2-25.5
			c-1.4-7.1-3.6-12.8-6.7-17.1c-3.1-4.4-7.3-7.5-12.5-9.5c-5.2-2-11.6-3-19.3-3c-3.1,0-6.3,0.1-9.7,0.3c-3.3,0.2-6.5,0.5-9.5,0.8
			c-3,0.3-5.7,0.7-8.1,1.1c-2.4,0.4-4.1,0.7-5.1,0.9v136.6h-28.9V98.1z"/>
		<path class="st0" d="M903.1,245.6l-40.6-40.9c-20.6-21-20.3-41.2,0-61.9l40.6-40.9c20.6-21,41.6-20.6,62.2,0l40.9,40.9
			c20.3,20.3,20.6,41.2,0,61.9l-40.9,40.9C944.6,266.3,923.7,266.6,903.1,245.6z M946.6,122.2c-8.3-8.3-16.6-8.3-24.9,0l-38.9,39.2
			c-8.3,8.3-8.3,16.3,0,24.6l38.9,39.2c8.3,8.3,16.6,8.3,24.9,0l39.2-39.2c8-8,8-16.6,0-24.6L946.6,122.2z"/>
		<path class="st0" d="M1258.9,92.8c-11-1.9-23.7-2.8-38-2.8c-12.9,0-23.5,1.8-32.1,5.4c-8.2,3.5-14.8,8.4-19.8,14.6
			c-5-6.2-11.6-11.1-19.8-14.6c-8.5-3.6-19.2-5.4-32.1-5.4c-14.3,0-27,0.9-38,2.8c-11,1.9-19.8,3.6-26.5,5.3v157.2h28.9V118.6
			c1-0.2,2.7-0.5,5.1-0.9s5.1-0.8,8.1-1.1c3-0.3,6.2-0.6,9.5-0.8c3.3-0.2,6.5-0.3,9.7-0.3c7.7,0,14.1,1,19.3,3
			c5.2,2,9.3,5.1,12.5,9.5c3.1,4.4,5.3,10.1,6.7,17.1c1.3,7.1,2,15.6,2,25.5v84.7h0.1h28.8h0.1v-84.7c0-10,0.7-18.5,2-25.5
			c1.4-7.1,3.6-12.8,6.7-17.1c3.1-4.4,7.3-7.5,12.5-9.5c5.2-2,11.6-3,19.3-3c3.1,0,6.3,0.1,9.7,0.3c3.3,0.2,6.5,0.5,9.5,0.8
			c3,0.3,5.7,0.7,8.1,1.1s4.1,0.7,5.1,0.9v136.6h28.9V98.1C1278.7,96.4,1269.9,94.7,1258.9,92.8z"/>
		<path class="st0" d="M1355.9,255.3H1327V122.4c0-16,13-28.9,28.9-28.9l0,0V255.3z"/>
		<path class="st0" d="M1458,89.4c11.6,0,21.4,1.5,29.4,4.5c8,3,14.4,7.3,19.3,12.8c4.9,5.5,8.4,12,10.4,19.6
			c2.1,7.6,3.1,15.9,3.1,25.1v101.2c-2.5,0.4-6,1-10.4,1.7c-4.5,0.7-9.5,1.4-15.1,2c-5.6,0.6-11.7,1.2-18.2,1.7
			c-6.5,0.5-13,0.8-19.5,0.8c-9.1,0-17.5-0.9-25.2-2.8c-7.7-1.9-14.3-4.8-19.9-8.9c-5.6-4-10-9.4-13.1-16c-3.1-6.6-4.7-14.6-4.7-24
			c0-8.9,1.8-16.6,5.4-23c3.6-6.4,8.6-11.6,14.8-15.6c6.2-3.9,13.5-6.8,21.8-8.7c8.3-1.9,17-2.8,26.1-2.8c2.9,0,5.9,0.2,9,0.5
			s6.1,0.7,8.9,1.2c2.8,0.5,5.2,1,7.3,1.4c2.1,0.4,3.5,0.7,4.4,0.9v-8.1c0-4.8-0.5-9.5-1.6-14.2c-1-4.7-2.9-8.8-5.6-12.4
			c-2.7-3.6-6.4-6.5-11-8.7c-4.7-2.2-10.7-3.3-18.2-3.3c-9.5,0-17.9,0.7-25.1,2c-7.2,1.4-12.5,2.8-16,4.2l-3.4-24
			c3.7-1.7,10-3.3,18.7-4.8C1438.4,90.2,1447.8,89.4,1458,89.4z M1460.5,234.4c6.8,0,12.9-0.2,18.2-0.5c5.3-0.3,9.7-0.9,13.2-1.7
			V184c-2.1-1-5.5-1.9-10.1-2.6c-4.7-0.7-10.3-1.1-17-1.1c-4.4,0-9,0.3-13.8,0.9c-4.9,0.6-9.3,1.9-13.4,3.9c-4,2-7.4,4.7-10.1,8.1
			c-2.7,3.4-4,7.9-4,13.5c0,10.4,3.3,17.6,10,21.6C1440,232.4,1449.1,234.4,1460.5,234.4z"/>
	</g>
</g>
</svg>
